<svg xmlns="http://www.w3.org/2000/svg" width="60.743" height="54.36" viewBox="0 0 60.743 54.36"><g transform="translate(-273.435 -403.12)"><g transform="translate(273.435 422.784)"><g transform="translate(2.471 8.762)"><path d="M275.436,452.072V426.139h17.288v25.933" transform="translate(-275.436 -426.139)" fill="none"/><path d="M276.436,450.6V427.139h14.819V450.6" transform="translate(-275.201 -425.905)" fill="none" stroke="#fff" stroke-width="2"/></g><path d="M273.435,430.275l11.231-11.231L295.9,430.275Z" transform="translate(-273.435 -419.044)" fill="none"/><path d="M279.4,427.806h10.536l-5.268-5.268-5.268,5.268m-5.963,2.47,11.231-11.231,11.23,11.231Z" transform="translate(-273.435 -419.044)" fill="#fff"/></g><g transform="translate(282.697 449.453)"><rect width="2.47" height="4.94" transform="translate(0.617 0.617)" fill="none"/><rect width="3.705" height="6.174" fill="none" stroke="#fff" stroke-width="1"/></g><g transform="translate(316.889 403.12)"><path d="M308.624,449.5v-54.36h17.288V449.5" transform="translate(-308.624 -395.139)" fill="none"/><path d="M309.624,448.029v-51.89h14.819v51.89" transform="translate(-308.389 -394.905)" fill="none" stroke="#fff" stroke-width="2"/></g><g transform="translate(323.681 449.453)"><rect width="3" height="5" transform="translate(0.496 1.027)" fill="none" stroke="#fff" stroke-width="1"/><rect width="3.705" height="6.174" fill="none" stroke="#fff" stroke-width="1"/></g><rect width="3" height="4" transform="translate(324.178 441.479)" fill="#fff"/><rect width="3" height="3" transform="translate(324.178 435.479)" fill="#fff"/><rect width="3" height="3" transform="translate(324.178 429.479)" fill="#fff"/><rect width="3" height="4" transform="translate(324.178 422.479)" fill="#fff"/><rect width="3" height="4" transform="translate(324.178 416.479)" fill="#fff"/><rect width="3" height="4" transform="translate(324.178 410.479)" fill="#fff"/><g transform="translate(298.384 433.575)"><path d="M7763.016,2656.4v-13.528l7.985-9.23,7.324,9.23V2656.4" transform="translate(-7763.016 -2633.643)" fill="none" stroke="#fff" stroke-width="2"/><g transform="translate(5.803 15.878)"><rect width="2.47" height="4.94" transform="translate(0.617 0.617)" fill="none"/><rect width="3.705" height="6.174" transform="translate(0 0)" fill="none" stroke="#fff" stroke-width="1"/></g></g></g></svg>