<?xml version="1.0" encoding="utf-8"?>
<!-- Generator: Adobe Illustrator 26.5.0, SVG Export Plug-In . SVG Version: 6.00 Build 0)  -->
<svg version="1.1" id="Calque_1" xmlns="http://www.w3.org/2000/svg" xmlns:xlink="http://www.w3.org/1999/xlink" x="0px" y="0px"
	 viewBox="0 0 41 41" style="enable-background:new 0 0 41 41;" xml:space="preserve">
<style type="text/css">
	.st0{fill:none;stroke:#03BD80;stroke-miterlimit:10;}
	.st1{fill:none;stroke:#03BD80;stroke-width:2;}
	.st2{fill:none;stroke:#03BD80;stroke-width:2;stroke-miterlimit:10;}
</style>
<g transform="translate(-6045 -3140.742)">
	<g transform="translate(6045 3140.742)">
		<circle class="st0" cx="20.5" cy="20.5" r="20.5"/>
		<circle class="st1" cx="20.5" cy="20.5" r="19.5"/>
	</g>
	<path class="st2" d="M6056,3164.7L6056,3164.7L6056,3164.7c0,0.1,0,0.2,0,0.3c0,0,0,0.1,0,0.1c0,0.1,0,0.2,0,0.3c0,0,0,0,0,0.1
		c0,0.1,0,0.2,0.1,0.3c0,0,0,0,0,0c0.6,3.1,3.8,5.6,7.8,6.1h0c0.1,0,0.3,0,0.4,0l0.1,0c0.1,0,0.2,0,0.4,0c0.2,0,0.3,0,0.5,0h0
		c0.1,0,0.1,0,0.2,0c0.1,0,0.2,0,0.3,0c0.1,0,0.2,0,0.3,0c0.1,0,0.1,0,0.2,0c0.1,0,0.2,0,0.3,0l0.1,0c0.1,0,0.3,0,0.4-0.1l0.1,0
		c3.8-0.6,6.8-3,7.4-6c0,0,0,0,0,0c0-0.1,0-0.2,0.1-0.3c0,0,0,0,0-0.1c0-0.1,0-0.2,0-0.3c0-0.1,0-0.2,0-0.4"/>
	<path class="st2" d="M6063,3156.8L6063,3156.8L6063,3156.8c0,0,0-0.1,0-0.1c0,0,0,0,0,0c0,0,0-0.1,0-0.1c0,0,0,0,0,0
		c0,0,0-0.1,0-0.1c0,0,0,0,0,0c-0.4-1.3-1.6-2.2-2.9-2.3h0c-0.1,0-0.1,0-0.2,0h0l-0.1,0c-0.1,0-0.1,0-0.2,0h-0.1h-0.1l-0.1,0h-0.1
		l-0.1,0l0,0l-0.1,0h0c-1.3,0.1-2.4,1-2.8,2.3v0c0,0,0,0.1,0,0.1c0,0,0,0,0,0c0,0,0,0.1,0,0.1c0,0,0,0.1,0,0.1"/>
	<path class="st2" d="M6075.4,3156.8L6075.4,3156.8L6075.4,3156.8c0,0,0-0.1,0-0.1c0,0,0,0,0,0c0,0,0-0.1,0-0.1c0,0,0,0,0,0
		c0,0,0-0.1,0-0.1c0,0,0,0,0,0c-0.4-1.3-1.6-2.2-2.9-2.3h0c-0.1,0-0.1,0-0.2,0h0l-0.1,0c-0.1,0-0.1,0-0.2,0h-0.1h-0.1l-0.1,0h-0.1
		l-0.1,0l0,0l-0.1,0h0c-1.3,0.1-2.4,1-2.8,2.3v0c0,0,0,0.1,0,0.1c0,0,0,0,0,0c0,0,0,0.1,0,0.1c0,0,0,0.1,0,0.1"/>
</g>
</svg>
