<svg xmlns="http://www.w3.org/2000/svg" width="45" height="52.277" viewBox="0 0 45 52.277"><g transform="translate(-6197 -2352.723)"><circle cx="4.173" cy="4.173" r="4.173" transform="translate(6202.069 2363.455)" fill="none" stroke="#FFFFFF" stroke-width="2"/><circle cx="4.173" cy="4.173" r="4.173" transform="translate(6215.083 2363.455)" fill="none" stroke="#FFFFFF" stroke-width="2"/><circle cx="4.173" cy="4.173" r="4.173" transform="translate(6208.415 2353.723)" fill="none" stroke="#FFFFFF" stroke-width="2"/><circle cx="4.173" cy="4.173" r="4.173" transform="translate(6221.681 2353.723)" fill="none" stroke="#FFFFFF" stroke-width="2"/><path d="M47.755,20.951a4.173,4.173,0,1,1-4.173,4.174A4.173,4.173,0,0,1,47.755,20.951Z" transform="translate(6184.443 2342.504)" fill="none" stroke="#FFFFFF" stroke-width="2"/><path d="M311.732,430.644m-10-5v-13.8a6,6,0,0,1-3-5.2v-5a6,6,0,0,1,6-6h5a6,6,0,0,1,6,6v5a6,6,0,0,1-3,5.2v13.8" transform="translate(5899.269 1979.356)" fill="none" stroke="#FFFFFF" stroke-miterlimit="10" stroke-width="2"/><path d="M311.732,430.644m-10-5v-13.8a6,6,0,0,1-3-5.2v-5a6,6,0,0,1,6-6h5a6,6,0,0,1,6,6v5a6,6,0,0,1-3,5.2v13.8" transform="translate(5925.269 1979.356)" fill="none" stroke="#FFFFFF" stroke-miterlimit="10" stroke-width="2"/></g></svg>