<?xml version="1.0" encoding="utf-8"?>
<!-- Generator: Adobe Illustrator 26.5.0, SVG Export Plug-In . SVG Version: 6.00 Build 0)  -->
<svg version="1.1" id="Calque_1" xmlns="http://www.w3.org/2000/svg" xmlns:xlink="http://www.w3.org/1999/xlink" x="0px" y="0px"
	 viewBox="0 0 47 51.8" style="enable-background:new 0 0 47 51.8;" xml:space="preserve">
<style type="text/css">
	.st0{fill:none;stroke:#03BD80;stroke-width:2;}
</style>
<g>
	<rect x="2" y="20.8" class="st0" width="43" height="26"/>
	<rect x="3" y="21.8" class="st0" width="41" height="24"/>
</g>
<g>
	<rect y="44.8" class="st0" width="47" height="7"/>
	<rect x="1" y="45.8" class="st0" width="45" height="5"/>
</g>
<g>
	<path class="st0" d="M8.3,8.6c1.4,0,2.5-1.5,2.5-3.4c0-1.7-1.7-3.7-1.9-3.9c-0.3-0.4-0.9-0.4-1.2,0c0,0,0,0-0.1,0
		C7.5,1.5,5.8,3.5,5.8,5.2C5.8,7.1,6.9,8.6,8.3,8.6z"/>
	<path class="st0" d="M15.7,8.6c1.4,0,2.5-1.5,2.5-3.4c0-1.7-1.7-3.7-1.9-3.9c-0.3-0.4-0.9-0.4-1.2,0c0,0,0,0-0.1,0
		c-0.2,0.2-1.9,2.3-1.9,3.9C13.1,7.1,14.3,8.6,15.7,8.6z"/>
	<path class="st0" d="M24.1,8.6c1.4,0,2.5-1.5,2.5-3.4c0-1.7-1.7-3.7-1.9-3.9c-0.3-0.4-0.9-0.4-1.2,0c0,0,0,0,0,0
		c-0.2,0.2-1.9,2.3-1.9,3.9C21.5,7.1,22.7,8.6,24.1,8.6z"/>
	<path class="st0" d="M31.4,8.6c1.4,0,2.5-1.5,2.5-3.4c0-1.7-1.7-3.7-1.9-3.9c-0.3-0.4-0.9-0.4-1.2,0c0,0,0,0,0,0
		c-0.2,0.2-1.9,2.3-1.9,3.9C28.9,7.1,30,8.6,31.4,8.6z"/>
	<path class="st0" d="M39.8,8.6c1.4,0,2.5-1.5,2.5-3.4c0-1.7-1.7-3.7-1.9-3.9c-0.3-0.4-0.9-0.4-1.2,0c0,0,0,0,0,0
		c-0.2,0.2-1.9,2.3-1.9,3.9C37.3,7.1,38.4,8.6,39.8,8.6z"/>
</g>
<g>
	<path class="st0" d="M12.6,19.1v-8.4h5.3v8.4"/>
	<path class="st0" d="M13.7,18.1v-6.3h3.1v6.3"/>
</g>
<g>
	<path class="st0" d="M28.4,19.1v-8.4h5.3v8.4"/>
	<path class="st0" d="M29.4,18.1v-6.3h3.2v6.3"/>
</g>
<g>
	<path class="st0" d="M21,19.1v-8.4h5.3v8.4"/>
	<path class="st0" d="M22.1,18.1v-6.3h3.1v6.3"/>
</g>
<g>
	<path class="st0" d="M36.8,19.1v-8.4h5.3v8.4"/>
	<path class="st0" d="M37.8,18.1v-6.3H41v6.3"/>
</g>
<g>
	<path class="st0" d="M5.2,19.1v-8.4h5.3v8.4"/>
	<path class="st0" d="M6.3,18.1v-6.3h3.2v6.3"/>
</g>
<path class="st0" d="M2.9,31.8l2,2.3c1.1,1.3,3.1,1.6,4.5,0.5c0.2-0.2,0.4-0.3,0.6-0.5l2.9-3.3l2.9,3.3c1.1,1.3,3.1,1.6,4.5,0.5
	c0.2-0.2,0.4-0.3,0.6-0.5l2.9-3.3l2.9,3.3c1.1,1.3,3.1,1.6,4.5,0.5c0.2-0.2,0.4-0.3,0.6-0.5l2.9-3.3l2.9,3.3c1.1,1.3,3,1.6,4.4,0.6
	c0.3-0.2,0.5-0.4,0.7-0.6l2-2.3"/>
</svg>
