<svg xmlns="http://www.w3.org/2000/svg" width="41" height="41" viewBox="0 0 41 41"><g transform="translate(-6045 -3140.742)"><g transform="translate(6045 3140.742)" fill="none" stroke="#fff" stroke-width="2"><circle cx="20.5" cy="20.5" r="20.5" stroke="none"/><circle cx="20.5" cy="20.5" r="19.5" fill="none"/></g><path d="M677.454,357.417h0v.012c0,.087,0,.173.008.259,0,.033,0,.067,0,.1.007.1.017.2.029.3,0,.021,0,.041.006.062.014.108.032.215.052.322,0,.012,0,.025.006.038.6,3.149,3.79,5.637,7.82,6.109l.043,0c.139.016.278.03.419.041l.1.006c.123.008.245.017.369.022q.235.009.472.009h.015c.056,0,.111,0,.166,0,.1,0,.2,0,.3-.006s.19-.01.285-.016c.061,0,.122-.006.182-.011.109-.009.218-.02.326-.032l.135-.014c.13-.015.258-.034.386-.053l.066-.009c3.811-.6,6.779-3.019,7.36-6.047,0-.011,0-.022.005-.033.02-.109.038-.218.052-.328,0-.023,0-.046.007-.069.011-.1.022-.2.028-.3q.012-.183.012-.369" transform="translate(5378.594 2807.298)" fill="none" stroke="#fff" stroke-miterlimit="10" stroke-width="2"/><path d="M0,0H0V0C0,.037,0,.069,0,.1,0,.114,0,.126,0,.139c0,.038.006.076.011.113,0,.008,0,.015,0,.023C.023.316.029.356.037.4c0,0,0,.01,0,.014A3.2,3.2,0,0,0,2.971,2.7l.016,0c.052.006.1.011.157.015l.037,0,.138.008q.088,0,.177,0h.068l.112,0,.107-.006.068,0,.122-.012L4.023,2.7l.145-.02.025,0A3.151,3.151,0,0,0,6.952.41l0-.012c.008-.041.014-.082.02-.123,0-.009,0-.017,0-.026,0-.037.008-.074.01-.111s0-.092,0-.138" transform="translate(6063.039 3156.817) rotate(180)" fill="none" stroke="#fff" stroke-miterlimit="10" stroke-width="2"/><path d="M0,0H0V0C0,.037,0,.069,0,.1,0,.114,0,.126,0,.139c0,.038.006.076.011.113,0,.008,0,.015,0,.023C.023.316.029.356.037.4c0,0,0,.01,0,.014A3.2,3.2,0,0,0,2.971,2.7l.016,0c.052.006.1.011.157.015l.037,0,.138.008q.088,0,.177,0h.068l.112,0,.107-.006.068,0,.122-.012L4.023,2.7l.145-.02.025,0A3.151,3.151,0,0,0,6.952.41l0-.012c.008-.041.014-.082.02-.123,0-.009,0-.017,0-.026,0-.037.008-.074.01-.111s0-.092,0-.138" transform="translate(6075.438 3156.817) rotate(180)" fill="none" stroke="#fff" stroke-miterlimit="10" stroke-width="2"/></g></svg>