<?xml version="1.0" encoding="UTF-8"?>
<svg id="Calque_1" data-name="Calque 1" xmlns="http://www.w3.org/2000/svg" viewBox="0 0 45 52.28">
  <defs>
    <style>
      .cls-1, .cls-2 {
        fill: none;
        stroke: #03bd80;
        stroke-width: 2px;
      }

      .cls-2 {
        stroke-miterlimit: 10;
      }
    </style>
  </defs>
  <circle class="cls-1" cx="9.24" cy="14.91" r="4.17"/>
  <circle class="cls-1" cx="22.25" cy="14.91" r="4.17"/>
  <circle class="cls-1" cx="15.59" cy="5.17" r="4.17"/>
  <circle class="cls-1" cx="28.85" cy="5.17" r="4.17"/>
  <path class="cls-1" d="M35.2,10.73c2.3,0,4.17,1.87,4.17,4.17s-1.87,4.17-4.17,4.17-4.17-1.87-4.17-4.17c0-2.3,1.87-4.17,4.17-4.17h0Z"/>
  <path class="cls-2" d="M4,52.28v-13.8c-1.86-1.07-3-3.06-3-5.2v-5c0-3.31,2.69-6,6-6h5c3.31,0,6,2.69,6,6v5c0,2.14-1.14,4.13-3,5.2v13.8"/>
  <path class="cls-2" d="M30,52.28v-13.8c-1.86-1.07-3-3.06-3-5.2v-5c0-3.31,2.69-6,6-6h5c3.31,0,6,2.69,6,6v5c0,2.14-1.14,4.13-3,5.2v13.8"/>
</svg>