<svg xmlns="http://www.w3.org/2000/svg" width="47" height="51.777" viewBox="0 0 47 51.777"><g transform="translate(-6198 -2376.764)"><g transform="translate(6200 2397.542)" fill="none" stroke="#fff" stroke-width="2"><rect width="43" height="26" stroke="none"/><rect x="1" y="1" width="41" height="24" fill="none"/></g><g transform="translate(6198 2421.542)" fill="none" stroke="#fff" stroke-width="2"><rect width="47" height="7" stroke="none"/><rect x="1" y="1" width="45" height="5" fill="none"/></g><g transform="translate(6203.781 2377.764)"><path d="M31.54,17.623c1.425,0,2.54-1.488,2.54-3.387,0-1.667-1.7-3.709-1.9-3.936a.876.876,0,0,0-1.288,0c-.195.227-1.9,2.269-1.9,3.936C29,16.135,30.115,17.623,31.54,17.623Z" transform="translate(-29 -10.018)" fill="none" stroke="#fff" stroke-width="2"/><path d="M31.54,17.623c1.425,0,2.54-1.488,2.54-3.387,0-1.667-1.7-3.709-1.9-3.936a.876.876,0,0,0-1.288,0c-.195.227-1.9,2.269-1.9,3.936C29,16.135,30.115,17.623,31.54,17.623Z" transform="translate(-21.643 -10.018)" fill="none" stroke="#fff" stroke-width="2"/><path d="M31.54,17.623c1.425,0,2.54-1.488,2.54-3.387,0-1.667-1.7-3.709-1.9-3.936a.876.876,0,0,0-1.288,0c-.195.227-1.9,2.269-1.9,3.936C29,16.135,30.115,17.623,31.54,17.623Z" transform="translate(-13.235 -10.018)" fill="none" stroke="#fff" stroke-width="2"/><path d="M31.54,17.623c1.425,0,2.54-1.488,2.54-3.387,0-1.667-1.7-3.709-1.9-3.936a.876.876,0,0,0-1.288,0c-.195.227-1.9,2.269-1.9,3.936C29,16.135,30.115,17.623,31.54,17.623Z" transform="translate(-5.878 -10.018)" fill="none" stroke="#fff" stroke-width="2"/><path d="M31.54,17.623c1.425,0,2.54-1.488,2.54-3.387,0-1.667-1.7-3.709-1.9-3.936a.876.876,0,0,0-1.288,0c-.195.227-1.9,2.269-1.9,3.936C29,16.135,30.115,17.623,31.54,17.623Z" transform="translate(2.531 -10.018)" fill="none" stroke="#fff" stroke-width="2"/></g><g transform="translate(6210.612 2387.471)"><path d="M495.524,488.341v-8.408h5.255v8.408" transform="translate(-495.524 -479.933)" fill="none" stroke="#fff" stroke-width="1"/><path d="M496.524,487.239v-6.306h3.153v6.306" transform="translate(-495.473 -479.882)" fill="none" stroke="#fff" stroke-width="2"/></g><g transform="translate(6226.377 2387.471)"><path d="M495.524,488.341v-8.408h5.255v8.408" transform="translate(-495.524 -479.933)" fill="none" stroke="#fff" stroke-width="1"/><path d="M496.524,487.239v-6.306h3.153v6.306" transform="translate(-495.473 -479.882)" fill="none" stroke="#fff" stroke-width="2"/></g><g transform="translate(6219.02 2387.471)"><path d="M495.524,488.341v-8.408h5.255v8.408" transform="translate(-495.524 -479.933)" fill="none" stroke="#fff" stroke-width="1"/><path d="M496.524,487.239v-6.306h3.153v6.306" transform="translate(-495.473 -479.882)" fill="none" stroke="#fff" stroke-width="2"/></g><g transform="translate(6234.786 2387.471)"><path d="M495.524,488.341v-8.408h5.255v8.408" transform="translate(-495.524 -479.933)" fill="none" stroke="#fff" stroke-width="1"/><path d="M496.524,487.239v-6.306h3.153v6.306" transform="translate(-495.473 -479.882)" fill="none" stroke="#fff" stroke-width="2"/></g><g transform="translate(6203.255 2387.471)"><path d="M495.524,488.341v-8.408h5.255v8.408" transform="translate(-495.524 -479.933)" fill="none" stroke="#fff" stroke-width="1"/><path d="M496.524,487.239v-6.306h3.153v6.306" transform="translate(-495.473 -479.882)" fill="none" stroke="#fff" stroke-width="2"/></g><path d="M436.082,484.984l1.959,2.283a3.341,3.341,0,0,0,4.535.541,3.161,3.161,0,0,0,.568-.541l2.862-3.334,2.862,3.334a3.341,3.341,0,0,0,4.535.541,3.16,3.16,0,0,0,.568-.541l2.862-3.334,2.862,3.334a3.342,3.342,0,0,0,4.537.539,3.209,3.209,0,0,0,.566-.539l2.862-3.334,2.862,3.334a3.268,3.268,0,0,0,4.424.645,3.072,3.072,0,0,0,.678-.645l1.959-2.283" transform="translate(5764.782 1923.609)" fill="none" stroke="#fff" stroke-width="2"/></g></svg>