<?xml version="1.0" encoding="utf-8"?>
<!-- Generator: Adobe Illustrator 26.5.0, SVG Export Plug-In . SVG Version: 6.00 Build 0)  -->
<svg version="1.1" id="Calque_1" xmlns="http://www.w3.org/2000/svg" xmlns:xlink="http://www.w3.org/1999/xlink" x="0px" y="0px"
	 viewBox="0 0 60.7 54.4" style="enable-background:new 0 0 60.7 54.4;" xml:space="preserve">
<style type="text/css">
	.st0{fill:none;stroke:#03BD80;stroke-miterlimit:10;}
	.st1{fill:none;stroke:#03BD80;stroke-width:2;}
	.st2{fill:#FFFFFF;stroke:#03BD80;stroke-miterlimit:10;}
	.st3{fill:none;stroke:#03BD80;}
</style>
<g transform="translate(-273.435 -403.12)">
	<g transform="translate(273.435 422.784)">
		<g transform="translate(2.471 8.762)">
			<path class="st0" d="M0,25.9V0h17.3v25.9"/>
			<path class="st1" d="M1.2,24.7V1.2h14.8v23.5"/>
		</g>
		<path class="st0" d="M0,11.2L11.2,0l11.2,11.2H0z"/>
		<path class="st2" d="M6,8.8h10.5l-5.3-5.3L6,8.8 M0,11.2L11.2,0l11.2,11.2H0z"/>
	</g>
	<g transform="translate(282.697 449.453)">
		<rect x="0.6" y="0.6" class="st0" width="2.5" height="4.9"/>
		<rect x="0" y="0" class="st3" width="3.7" height="6.2"/>
	</g>
	<g transform="translate(316.889 403.12)">
		<path class="st0" d="M0,54.4V0h17.3v54.4"/>
		<path class="st1" d="M1.2,53.1V1.2h14.8v51.9"/>
	</g>
	<g transform="translate(323.681 449.453)">
		<rect x="0.5" y="1" class="st3" width="3" height="5"/>
		<rect x="0" y="0" class="st3" width="3.7" height="6.2"/>
	</g>
	<rect x="324.2" y="441.5" class="st2" width="3" height="4"/>
	<rect x="324.2" y="435.5" class="st2" width="3" height="3"/>
	<rect x="324.2" y="429.5" class="st2" width="3" height="3"/>
	<rect x="324.2" y="422.5" class="st2" width="3" height="4"/>
	<rect x="324.2" y="416.5" class="st2" width="3" height="4"/>
	<rect x="324.2" y="410.5" class="st2" width="3" height="4"/>
	<g transform="translate(298.384 433.575)">
		<path class="st1" d="M0,22.8V9.2L8,0l7.3,9.2v13.5"/>
		<g transform="translate(5.803 15.878)">
			<rect x="0.6" y="0.6" class="st0" width="2.5" height="4.9"/>
			<rect x="0" y="0" class="st3" width="3.7" height="6.2"/>
		</g>
	</g>
</g>
</svg>
