<svg xmlns="http://www.w3.org/2000/svg" width="61.617" height="31" viewBox="0 0 61.617 31"><g transform="translate(-6419.383 -2867)"><rect width="12" height="2" transform="translate(6441 2872)" fill="#fff"/><rect width="23" height="2" transform="translate(6441 2879)" fill="#fff"/><rect width="31" height="2" transform="translate(6441 2885)" fill="#fff"/><rect width="17" height="2" transform="translate(6441 2892)" fill="#fff"/><g transform="translate(6454 2869)" fill="none" stroke="#fff" stroke-width="2"><circle cx="3.5" cy="3.5" r="3.5" stroke="none"/><circle cx="3.5" cy="3.5" r="2.5" fill="none"/></g><g transform="translate(6466 2876)" fill="none" stroke="#fff" stroke-width="2"><circle cx="3.5" cy="3.5" r="3.5" stroke="none"/><circle cx="3.5" cy="3.5" r="2.5" fill="none"/></g><g transform="translate(6474 2882)" fill="none" stroke="#fff" stroke-width="2"><circle cx="3.5" cy="3.5" r="3.5" stroke="none"/><circle cx="3.5" cy="3.5" r="2.5" fill="none"/></g><g transform="translate(6460 2889)" fill="none" stroke="#fff" stroke-width="2"><circle cx="3.5" cy="3.5" r="3.5" stroke="none"/><circle cx="3.5" cy="3.5" r="2.5" fill="none"/></g><g transform="translate(6153.135 2455.117)"><path d="M265.8,412.883h18.117v29H265.8" transform="translate(0.443)" fill="none" stroke="#fff" stroke-width="2"/></g></g></svg>